<svg width="169" height="170" viewBox="0 0 169 170" fill="none" xmlns="http://www.w3.org/2000/svg">
<path d="M153.256 70.315C152.438 68.997 151.414 67.844 150.184 66.847C148.955 65.853 147.565 65.078 146.014 64.52C144.463 63.965 142.839 63.688 141.143 63.688C138.039 63.688 135.407 64.289 133.243 65.487C131.076 66.687 129.319 68.296 127.975 70.315C126.627 72.335 125.648 74.631 125.034 77.207C124.42 79.784 124.11 82.446 124.11 85.194C124.11 87.829 124.42 90.39 125.034 92.877C125.648 95.366 126.628 97.605 127.975 99.593C129.319 101.582 131.076 103.178 133.243 104.378C135.407 105.578 138.04 106.176 141.143 106.176C145.356 106.176 148.649 104.89 151.02 102.315C153.389 99.741 154.838 96.345 155.364 92.13H168.71C168.356 96.052 167.45 99.593 165.986 102.753C164.523 105.914 162.59 108.606 160.194 110.83C157.792 113.054 154.982 114.751 151.765 115.92C148.545 117.092 145.006 117.678 141.143 117.678C136.343 117.678 132.027 116.843 128.195 115.175C124.36 113.507 121.128 111.212 118.493 108.283C115.861 105.357 113.842 101.918 112.436 97.969C111.032 94.02 110.329 89.762 110.329 85.195C110.329 80.514 111.032 76.17 112.436 72.159C113.841 68.151 115.861 64.653 118.493 61.67C121.128 58.684 124.36 56.344 128.195 54.648C132.027 52.95 136.343 52.101 141.143 52.101C144.595 52.101 147.859 52.6 150.932 53.594C154.003 54.589 156.752 56.037 159.182 57.939C161.611 59.841 163.618 62.197 165.196 65.006C166.777 67.815 167.771 71.035 168.181 74.662H154.838C154.604 73.081 154.074 71.632 153.256 70.315Z" fill="#003FA7"/>
<path d="M14.293 74.661H0.94902C1.36002 71.034 2.35402 67.813 3.93402 65.005C5.51502 62.195 7.51902 59.84 9.94902 57.938C12.379 56.037 15.127 54.588 18.199 53.593C21.271 52.599 24.535 52.1 27.988 52.1C32.788 52.1 37.104 52.949 40.935 54.647C44.771 56.343 48.003 58.683 50.638 61.669C53.27 64.652 55.288 68.15 56.695 72.158C58.099 76.169 58.802 80.513 58.802 85.194C58.802 89.761 58.099 94.019 56.695 97.968C55.289 101.917 53.27 105.357 50.638 108.282C48.003 111.211 44.771 113.506 40.935 115.174C37.104 116.842 32.788 117.677 27.988 117.677C24.125 117.677 20.586 117.091 17.366 115.919C14.148 114.75 11.339 113.053 8.93701 110.829C6.54101 108.604 4.60801 105.913 3.14401 102.752C1.68101 99.592 0.775021 96.051 0.421021 92.129H13.767C14.292 96.344 15.742 99.739 18.111 102.314C20.482 104.889 23.775 106.175 27.988 106.175C31.092 106.175 33.726 105.577 35.888 104.377C38.054 103.177 39.811 101.581 41.156 99.592C42.504 97.604 43.483 95.365 44.096 92.876C44.712 90.39 45.02 87.828 45.02 85.193C45.02 82.445 44.712 79.783 44.096 77.206C43.483 74.631 42.503 72.334 41.156 70.314C39.811 68.294 38.054 66.686 35.888 65.486C33.726 64.288 31.091 63.687 27.988 63.687C26.292 63.687 24.668 63.964 23.117 64.519C21.566 65.078 20.176 65.852 18.946 66.846C17.717 67.843 16.693 68.995 15.874 70.314C15.056 71.632 14.527 73.081 14.293 74.661Z" fill="#003FA7"/>
<path d="M69.992 16.196C68.676 17.016 67.521 18.041 66.524 19.269C65.53 20.498 64.755 21.889 64.199 23.438C63.644 24.991 63.365 26.616 63.365 28.312C63.365 31.415 63.966 34.046 65.164 36.213C66.364 38.378 67.973 40.133 69.992 41.479C72.012 42.827 74.31 43.805 76.885 44.42C79.461 45.033 82.123 45.342 84.871 45.342C87.506 45.342 90.067 45.033 92.555 44.42C95.043 43.805 97.282 42.826 99.27 41.479C101.259 40.133 102.856 38.378 104.054 36.213C105.255 34.046 105.854 31.414 105.854 28.312C105.854 24.098 104.567 20.805 101.992 18.435C99.417 16.064 96.022 14.617 91.807 14.088V0.746002C95.73 1.096 99.27 2.006 102.43 3.467C105.591 4.93099 108.284 6.86199 110.506 9.26199C112.731 11.661 114.428 14.471 115.598 17.689C116.768 20.907 117.355 24.45 117.355 28.312C117.355 33.112 116.52 37.427 114.852 41.26C113.184 45.093 110.889 48.326 107.961 50.959C105.035 53.594 101.596 55.613 97.647 57.018C93.696 58.421 89.438 59.125 84.872 59.125C80.191 59.125 75.847 58.421 71.836 57.018C67.829 55.614 64.33 53.594 61.347 50.959C58.361 48.326 56.021 45.093 54.324 41.26C52.627 37.427 51.778 33.112 51.778 28.312C51.778 24.858 52.277 21.596 53.271 18.524C54.266 15.45 55.714 12.7 57.616 10.27C59.518 7.842 61.874 5.838 64.683 4.257C67.492 2.678 70.71 1.683 74.339 1.272V14.617C72.758 14.852 71.309 15.378 69.992 16.196Z" fill="#003FA7"/>
<path d="M74.338 155.16V168.505C70.709 168.095 67.49 167.099 64.682 165.521C61.872 163.939 59.517 161.934 57.615 159.506C55.714 157.078 54.265 154.326 53.27 151.253C52.276 148.181 51.777 144.918 51.777 141.466C51.777 136.665 52.626 132.35 54.323 128.517C56.02 124.684 58.36 121.45 61.346 118.818C64.329 116.183 67.828 114.164 71.835 112.76C75.846 111.356 80.19 110.652 84.871 110.652C89.437 110.652 93.695 111.356 97.646 112.76C101.595 114.163 105.035 116.183 107.96 118.818C110.888 121.45 113.183 124.684 114.851 128.517C116.519 132.35 117.354 136.665 117.354 141.466C117.354 145.327 116.767 148.87 115.597 152.088C114.427 155.306 112.73 158.115 110.505 160.515C108.282 162.916 105.59 164.846 102.429 166.309C99.269 167.771 95.729 168.68 91.806 169.031V155.688C96.021 155.161 99.415 153.713 101.991 151.341C104.566 148.972 105.853 145.679 105.853 141.466C105.853 138.362 105.254 135.731 104.053 133.564C102.855 131.399 101.258 129.644 99.269 128.298C97.281 126.95 95.042 125.972 92.554 125.356C90.067 124.744 87.505 124.436 84.87 124.436C82.122 124.436 79.46 124.744 76.884 125.356C74.31 125.972 72.011 126.951 69.991 128.298C67.971 129.644 66.363 131.399 65.163 133.564C63.965 135.731 63.364 138.363 63.364 141.466C63.364 143.161 63.643 144.785 64.198 146.338C64.755 147.889 65.529 149.279 66.523 150.508C67.52 151.737 68.674 152.76 69.991 153.581C71.309 154.399 72.758 154.926 74.338 155.16Z" fill="#003FA7"/>
<path d="M122.909 26.011C121.398 25.659 119.858 25.568 118.285 25.733C116.712 25.898 115.181 26.335 113.689 27.035C112.201 27.742 110.857 28.693 109.656 29.892C107.462 32.086 106.023 34.372 105.342 36.751C104.66 39.132 104.557 41.509 105.031 43.89C105.508 46.269 106.439 48.587 107.824 50.841C109.213 53.099 110.877 55.196 112.821 57.142C114.683 59.003 116.712 60.597 118.904 61.921C121.097 63.245 123.375 64.138 125.733 64.591C128.091 65.048 130.461 64.933 132.84 64.249C135.22 63.566 137.505 62.13 139.698 59.937C142.678 56.957 144.096 53.718 143.952 50.22C143.806 46.724 142.43 43.298 139.823 39.948L149.259 30.512C151.784 33.534 153.644 36.677 154.845 39.948C156.046 43.218 156.583 46.487 156.459 49.757C156.335 53.026 155.549 56.213 154.101 59.316C152.653 62.42 150.562 65.338 147.831 68.069C144.436 71.463 140.794 73.924 136.905 75.455C133.015 76.986 129.106 77.65 125.173 77.44C121.241 77.235 117.384 76.232 113.597 74.43C109.811 72.631 106.303 70.117 103.075 66.889C99.764 63.578 97.189 60.007 95.347 56.182C93.506 52.354 92.46 48.453 92.212 44.479C91.962 40.507 92.595 36.565 94.105 32.655C95.615 28.745 98.066 25.093 101.46 21.698C103.901 19.257 106.563 17.303 109.439 15.832C112.315 14.364 115.286 13.444 118.345 13.071C121.407 12.698 124.491 12.946 127.595 13.815C130.698 14.684 133.677 16.257 136.534 18.533L127.098 27.968C125.814 27.015 124.42 26.361 122.909 26.011Z" fill="#003FA7"/>
<path d="M27.721 127.346L18.286 136.781C16.01 133.926 14.435 130.947 13.565 127.843C12.697 124.739 12.45 121.656 12.821 118.594C13.195 115.532 14.117 112.562 15.584 109.688C17.054 106.81 19.009 104.151 21.45 101.709C24.844 98.315 28.496 95.863 32.406 94.354C36.318 92.844 40.26 92.212 44.23 92.461C48.205 92.709 52.105 93.755 55.931 95.596C59.759 97.439 63.329 100.013 66.639 103.325C69.868 106.553 72.381 110.06 74.183 113.846C75.982 117.633 76.985 121.492 77.192 125.424C77.402 129.355 76.738 133.265 75.207 137.156C73.678 141.045 71.215 144.686 67.82 148.081C65.089 150.812 62.172 152.902 59.068 154.351C55.964 155.8 52.777 156.586 49.507 156.71C46.239 156.833 42.969 156.296 39.699 155.095C36.43 153.894 33.284 152.033 30.262 149.508L39.699 140.074C43.052 142.68 46.475 144.054 49.971 144.2C53.469 144.346 56.708 142.928 59.688 139.949C61.881 137.754 63.319 135.469 64 133.088C64.686 130.71 64.797 128.34 64.342 125.983C63.889 123.625 62.997 121.348 61.673 119.155C60.348 116.962 58.755 114.933 56.894 113.07C54.95 111.126 52.849 109.463 50.592 108.075C48.338 106.689 46.02 105.757 43.641 105.28C41.261 104.805 38.883 104.908 36.5 105.591C34.123 106.274 31.836 107.712 29.643 109.905C28.444 111.105 27.492 112.451 26.786 113.939C26.085 115.43 25.651 116.961 25.484 118.533C25.319 120.108 25.411 121.647 25.762 123.158C26.116 124.665 26.767 126.062 27.721 127.346Z" fill="#003FA7"/>
<path d="M25.764 46.619C25.411 48.132 25.321 49.672 25.486 51.245C25.651 52.817 26.087 54.347 26.788 55.838C27.494 57.329 28.446 58.673 29.645 59.874C31.838 62.067 34.125 63.503 36.505 64.188C38.885 64.87 41.263 64.973 43.643 64.497C46.022 64.023 48.34 63.091 50.594 61.704C52.851 60.317 54.95 58.65 56.895 56.708C58.757 54.845 60.35 52.815 61.675 50.624C62.999 48.429 63.891 46.155 64.344 43.796C64.799 41.437 64.688 39.067 64.003 36.69C63.32 34.309 61.883 32.025 59.69 29.83C56.711 26.851 53.471 25.432 49.973 25.578C46.477 25.721 43.053 27.1 39.7 29.706L30.264 20.27C33.285 17.745 36.432 15.883 39.701 14.683C42.971 13.484 46.241 12.945 49.511 13.071C52.779 13.194 55.964 13.98 59.07 15.429C62.174 16.874 65.091 18.966 67.822 21.697C71.217 25.092 73.679 28.733 75.209 32.625C76.74 36.514 77.404 40.423 77.194 44.354C76.99 48.288 75.984 52.147 74.185 55.932C72.383 59.717 69.87 63.228 66.641 66.455C63.331 69.767 59.761 72.342 55.933 74.184C52.107 76.025 48.206 77.071 44.232 77.316C40.261 77.567 36.318 76.936 32.41 75.423C28.498 73.916 24.846 71.463 21.452 68.069C19.011 65.628 17.056 62.968 15.586 60.092C14.119 57.215 13.197 54.246 12.822 51.184C12.452 48.123 12.699 45.039 13.567 41.934C14.437 38.833 16.011 35.852 18.284 32.996L27.721 42.432C26.768 43.714 26.115 45.11 25.764 46.619Z" fill="#003FA7"/>
<path d="M127.098 141.809L136.535 151.245C133.679 153.522 130.699 155.094 127.597 155.964C124.493 156.832 121.409 157.081 118.349 156.709C115.287 156.336 112.317 155.415 109.441 153.945C106.564 152.476 103.904 150.521 101.462 148.08C98.067 144.685 95.616 141.034 94.107 137.124C92.597 133.212 91.964 129.272 92.214 125.299C92.462 121.326 93.508 117.423 95.349 113.598C97.191 109.77 99.766 106.201 103.077 102.89C106.306 99.661 109.813 97.149 113.599 95.347C117.384 93.546 121.244 92.542 125.176 92.338C129.109 92.128 133.018 92.792 136.907 94.323C140.796 95.852 144.438 98.315 147.833 101.709C150.563 104.44 152.654 107.36 154.103 110.464C155.552 113.565 156.337 116.751 156.461 120.023C156.585 123.293 156.048 126.561 154.847 129.831C153.646 133.1 151.787 136.245 149.261 139.268L139.825 129.832C142.431 126.478 143.808 123.055 143.952 119.557C144.098 116.06 142.681 112.824 139.7 109.844C137.507 107.649 135.221 106.21 132.841 105.528C130.462 104.844 128.093 104.731 125.735 105.188C123.377 105.641 121.101 106.532 118.906 107.857C116.715 109.181 114.685 110.774 112.823 112.637C110.879 114.58 109.215 116.681 107.826 118.937C106.441 121.193 105.51 123.508 105.033 125.889C104.558 128.269 104.662 130.648 105.343 133.027C106.026 135.408 107.464 137.692 109.658 139.887C110.857 141.086 112.203 142.036 113.693 142.744C115.182 143.443 116.714 143.881 118.287 144.047C119.86 144.211 121.4 144.117 122.911 143.768C124.42 143.412 125.814 142.76 127.098 141.809Z" fill="#003FA7"/>
</svg>
