<?xml version="1.0" encoding="utf-8"?>
<!-- Generator: Adobe Illustrator 23.0.1, SVG Export Plug-In . SVG Version: 6.00 Build 0)  -->
<svg version="1.1" id="Layer_1" xmlns="http://www.w3.org/2000/svg" xmlns:xlink="http://www.w3.org/1999/xlink" x="0px" y="0px"
	 viewBox="0 0 219 221" style="enable-background:new 0 0 219 221;" xml:space="preserve">
<style type="text/css">
	.st0{fill:#F7A502;}
	.st1{fill:#0033A7;}
</style>
<g>
	<path class="st0" d="M189,162c0,13.75-11.25,25-25,25H52c-13.75,0-25-11.25-25-25V50c0-13.75,11.25-25,25-25h112
		c13.75,0,25,11.25,25,25V162z"/>
</g>
<g>
	<g id="_x30_07---Vegan-Certified_4_">
		<path id="Shape_6_" class="st1" d="M63.72,101.33c0.93,3.48-1.48,8.9,1,13.16c2.48,4.26,8.49,5.01,10.88,7.42
			c1.51,2.14,2.8,4.43,3.85,6.83l-12.07,35.23c-0.57,1.83,0.07,3.82,1.6,4.98c1.53,1.16,3.62,1.23,5.23,0.19l7.56-5.35l2.66,8.86
			c0.56,1.9,2.29,3.22,4.27,3.26c1.98,0.04,3.76-1.2,4.4-3.08l11.8-33.95c2.04,0.87,4.34,0.87,6.38,0l11.7,34.04
			c0.64,1.88,2.42,3.12,4.4,3.08c1.98-0.04,3.71-1.36,4.27-3.26l2.66-8.86l7.56,5.28c1.61,1.05,3.7,0.97,5.23-0.19
			c1.53-1.16,2.17-3.15,1.6-4.98l-11.98-35.16c1.05-2.39,2.33-4.68,3.83-6.83c2.48-2.55,8.52-3.23,10.91-7.49
			c2.39-4.26,0.11-9.79,1-13.16c0.89-3.37,5.72-6.9,5.72-11.89c0-4.99-4.87-8.7-5.72-11.89c-0.84-3.19,1.48-8.9-1-13.16
			c-2.48-4.26-8.49-5.01-10.88-7.42c-2.39-2.41-3.14-8.52-7.45-10.93c-4.3-2.41-9.79,0-13.16-0.98c-3.37-0.98-6.88-5.72-11.89-5.72
			s-8.68,4.85-11.89,5.72c-3.55,0.93-8.88-1.5-13.16,0.98c-4.28,2.48-4.99,8.47-7.42,10.91c-2.44,2.44-8.52,3.14-10.79,7.45
			s0,9.79-1,13.16c-1,3.37-5.83,6.85-5.83,11.89C58,94.5,62.85,98.1,63.72,101.33L63.72,101.33z M88.9,171.44l-2.66-8.9
			c-0.45-1.39-1.54-2.48-2.93-2.93c-1.39-0.45-2.91-0.21-4.09,0.65l-7.56,5.28c12.2-35.54,11.16-32.81,11.39-32.81
			c4.19,2.44,9.79,0,13.16,0.98c1.64,0.7,3.18,1.64,4.55,2.78L88.9,171.44z M136.97,160.06c-1.21-0.85-2.76-1.07-4.16-0.57
			c-1.4,0.5-2.46,1.64-2.86,3.07l-2.66,8.88l-11.98-34.86c1.37-1.15,2.9-2.08,4.55-2.76c3.58-0.96,8.88,1.48,13.16-1
			c0.23-0.14-0.8-2.78,11.39,32.7L136.97,160.06z M65.1,84.23c3.26-4.55,3.71-6.06,3.19-11.95c-0.52-5.9-0.2-6.31,5.1-8.74
			c5.31-2.44,6.35-3.51,8.77-8.79c2.41-5.28,3.17-5.6,8.77-5.08c5.6,0.52,7.35,0,11.95-3.19c4.6-3.19,5.62-3.39,10.43,0
			c4.8,3.39,6.17,3.69,11.95,3.19c5.78-0.5,6.33-0.2,8.77,5.08c2.44,5.28,3.53,6.35,8.77,8.79c5.24,2.44,5.62,3.05,5.1,8.74
			c-0.52,5.69,0,7.38,3.19,11.95c3.19,4.58,3.39,5.62,0,10.43c-3.39,4.8-3.71,6.06-3.19,11.95c0.52,5.9,0.2,6.31-5.1,8.77
			c-5.31,2.46-6.33,3.48-8.77,8.77c-2.44,5.28-3.05,5.6-8.77,5.1c-5.72-0.5-7.35,0-11.95,3.17c-4.6,3.17-5.62,3.39-10.43,0
			c-2.37-2.15-5.45-3.35-8.65-3.37c-3.28,0-6.99,0.93-8.9-0.16c-2.62-1.53-3.32-7.04-6.49-10.18c-3.17-3.14-8.7-3.92-10.18-6.47
			c-1.48-2.55,0.61-7.74-0.55-12.05c-1.16-4.3-5.56-7.7-5.56-10.72C62.9,87.52,63.78,85.7,65.1,84.23L65.1,84.23z"/>
	</g>
	<g>
		<g>
			<g>
				<g>
					<path class="st1" d="M137.06,82.76c-0.35-0.56-0.79-1.06-1.31-1.48c-0.53-0.43-1.12-0.76-1.78-1
						c-0.66-0.24-1.36-0.36-2.08-0.36c-1.33,0-2.45,0.26-3.38,0.77c-0.93,0.51-1.68,1.2-2.25,2.07c-0.58,0.86-1,1.85-1.26,2.95
						c-0.26,1.1-0.4,2.24-0.4,3.42c0,1.13,0.13,2.22,0.4,3.29c0.26,1.06,0.68,2.02,1.26,2.87c0.58,0.85,1.33,1.53,2.25,2.05
						c0.93,0.51,2.05,0.77,3.38,0.77c1.8,0,3.21-0.55,4.23-1.65c1.01-1.1,1.63-2.55,1.86-4.36h5.71c-0.15,1.68-0.54,3.19-1.17,4.54
						c-0.63,1.35-1.45,2.5-2.48,3.46c-1.03,0.95-2.23,1.68-3.61,2.18c-1.38,0.5-2.89,0.75-4.54,0.75c-2.05,0-3.9-0.36-5.54-1.07
						c-1.64-0.71-3.02-1.7-4.15-2.95c-1.13-1.25-1.99-2.72-2.59-4.41c-0.6-1.69-0.9-3.51-0.9-5.47c0-2,0.3-3.86,0.9-5.58
						c0.6-1.71,1.47-3.21,2.59-4.49c1.13-1.28,2.51-2.28,4.15-3c1.64-0.73,3.49-1.09,5.54-1.09c1.48,0,2.87,0.21,4.19,0.64
						c1.31,0.43,2.49,1.05,3.53,1.86c1.04,0.81,1.9,1.82,2.57,3.02c0.68,1.2,1.1,2.58,1.28,4.13h-5.71
						C137.64,83.95,137.41,83.33,137.06,82.76z"/>
				</g>
				<g>
					<path class="st1" d="M77.61,84.62H71.9c0.18-1.55,0.6-2.93,1.28-4.13c0.68-1.2,1.53-2.21,2.57-3.02
						c1.04-0.81,2.22-1.43,3.53-1.86c1.31-0.43,2.71-0.64,4.19-0.64c2.05,0,3.9,0.36,5.54,1.09c1.64,0.73,3.02,1.73,4.15,3
						c1.13,1.28,1.99,2.77,2.59,4.49c0.6,1.72,0.9,3.57,0.9,5.58c0,1.95-0.3,3.78-0.9,5.47c-0.6,1.69-1.47,3.16-2.59,4.41
						c-1.13,1.25-2.51,2.24-4.15,2.95c-1.64,0.71-3.49,1.07-5.54,1.07c-1.65,0-3.17-0.25-4.54-0.75c-1.38-0.5-2.58-1.23-3.61-2.18
						c-1.03-0.95-1.85-2.1-2.48-3.46c-0.63-1.35-1.01-2.87-1.17-4.54h5.71c0.22,1.8,0.85,3.26,1.86,4.36
						c1.01,1.1,2.42,1.65,4.23,1.65c1.33,0,2.45-0.26,3.38-0.77c0.93-0.51,1.68-1.2,2.25-2.05c0.58-0.85,1-1.81,1.26-2.87
						c0.26-1.06,0.4-2.16,0.4-3.29c0-1.18-0.13-2.31-0.4-3.42c-0.26-1.1-0.68-2.08-1.26-2.95c-0.58-0.86-1.33-1.55-2.25-2.07
						c-0.93-0.51-2.05-0.77-3.38-0.77c-0.73,0-1.42,0.12-2.08,0.36c-0.66,0.24-1.26,0.57-1.78,1c-0.53,0.43-0.96,0.92-1.31,1.48
						C77.94,83.33,77.71,83.95,77.61,84.62z"/>
				</g>
			</g>
			<g>
				<g>
					<path class="st1" d="M101.44,59.61c-0.56,0.35-1.06,0.79-1.48,1.31c-0.43,0.53-0.76,1.12-0.99,1.78
						c-0.24,0.66-0.36,1.36-0.36,2.09c0,1.33,0.26,2.45,0.77,3.38c0.51,0.93,1.2,1.68,2.07,2.25c0.86,0.58,1.85,1,2.95,1.26
						c1.1,0.26,2.24,0.39,3.42,0.39c1.13,0,2.22-0.13,3.29-0.39c1.06-0.26,2.02-0.68,2.87-1.26c0.85-0.58,1.53-1.33,2.05-2.25
						c0.51-0.93,0.77-2.05,0.77-3.38c0-1.8-0.55-3.21-1.65-4.23c-1.1-1.01-2.55-1.63-4.36-1.86V53c1.68,0.15,3.19,0.54,4.55,1.16
						c1.35,0.63,2.5,1.45,3.46,2.48c0.95,1.03,1.68,2.23,2.18,3.61s0.75,2.89,0.75,4.55c0,2.05-0.36,3.9-1.07,5.54
						c-0.71,1.64-1.7,3.02-2.95,4.15c-1.25,1.13-2.72,1.99-4.41,2.59c-1.69,0.6-3.51,0.9-5.47,0.9c-2,0-3.86-0.3-5.58-0.9
						c-1.71-0.6-3.21-1.46-4.49-2.59c-1.28-1.13-2.28-2.51-3-4.15c-0.73-1.64-1.09-3.49-1.09-5.54c0-1.48,0.21-2.87,0.64-4.19
						c0.43-1.32,1.05-2.49,1.86-3.53c0.81-1.04,1.82-1.9,3.02-2.57c1.2-0.68,2.58-1.1,4.13-1.28v5.71
						C102.62,59.04,102,59.26,101.44,59.61z"/>
				</g>
				<g>
					<path class="st1" d="M103.3,119.07v5.71c-1.55-0.18-2.93-0.6-4.13-1.28c-1.2-0.68-2.21-1.53-3.02-2.57
						c-0.81-1.04-1.43-2.22-1.86-3.53c-0.43-1.31-0.64-2.71-0.64-4.19c0-2.05,0.36-3.9,1.09-5.54c0.73-1.64,1.73-3.02,3-4.15
						c1.28-1.13,2.77-1.99,4.49-2.59c1.72-0.6,3.57-0.9,5.58-0.9c1.95,0,3.78,0.3,5.47,0.9c1.69,0.6,3.16,1.46,4.41,2.59
						c1.25,1.13,2.23,2.51,2.95,4.15c0.71,1.64,1.07,3.49,1.07,5.54c0,1.65-0.25,3.17-0.75,4.54s-1.23,2.58-2.18,3.61
						c-0.95,1.03-2.1,1.85-3.46,2.48c-1.35,0.63-2.87,1.01-4.55,1.16v-5.71c1.8-0.23,3.26-0.84,4.36-1.86
						c1.1-1.01,1.65-2.42,1.65-4.22c0-1.33-0.26-2.45-0.77-3.38c-0.51-0.93-1.2-1.68-2.05-2.25c-0.85-0.58-1.81-1-2.87-1.26
						c-1.06-0.26-2.16-0.39-3.29-0.39c-1.18,0-2.31,0.13-3.42,0.39c-1.1,0.26-2.08,0.68-2.95,1.26c-0.86,0.58-1.55,1.33-2.07,2.25
						c-0.51,0.93-0.77,2.05-0.77,3.38c0,0.73,0.12,1.42,0.36,2.08c0.24,0.66,0.57,1.26,0.99,1.78c0.43,0.53,0.92,0.96,1.48,1.31
						C102,118.74,102.62,118.97,103.3,119.07z"/>
				</g>
			</g>
		</g>
		<g>
			<g>
				<g>
					<path class="st1" d="M124.08,63.81c-0.65-0.15-1.31-0.19-1.98-0.12c-0.67,0.07-1.33,0.26-1.97,0.56
						c-0.64,0.3-1.21,0.71-1.73,1.22c-0.94,0.94-1.55,1.92-1.85,2.93c-0.29,1.02-0.34,2.04-0.13,3.05c0.2,1.02,0.6,2.01,1.19,2.97
						c0.59,0.97,1.31,1.86,2.14,2.7c0.8,0.8,1.66,1.48,2.6,2.04c0.94,0.57,1.91,0.95,2.92,1.14c1.01,0.2,2.02,0.15,3.04-0.15
						c1.02-0.29,2-0.91,2.93-1.84c1.27-1.27,1.88-2.66,1.82-4.16c-0.06-1.5-0.65-2.96-1.77-4.39l4.04-4.04
						c1.08,1.29,1.88,2.64,2.39,4.04c0.51,1.4,0.74,2.8,0.69,4.2c-0.05,1.4-0.39,2.76-1.01,4.09c-0.62,1.33-1.51,2.58-2.68,3.74
						c-1.45,1.45-3.01,2.51-4.67,3.16c-1.66,0.66-3.34,0.94-5.02,0.85c-1.68-0.09-3.33-0.52-4.95-1.29
						c-1.62-0.77-3.12-1.85-4.5-3.23c-1.42-1.42-2.52-2.94-3.31-4.58c-0.79-1.64-1.24-3.31-1.34-5.01c-0.11-1.7,0.16-3.39,0.81-5.06
						c0.65-1.67,1.69-3.24,3.15-4.69c1.04-1.04,2.18-1.88,3.41-2.51c1.23-0.63,2.5-1.02,3.81-1.18c1.31-0.16,2.63-0.05,3.96,0.32
						c1.33,0.37,2.6,1.04,3.82,2.02l-4.04,4.04C125.32,64.24,124.73,63.96,124.08,63.81z"/>
				</g>
				<g>
					<path class="st1" d="M83.36,107.17l-4.04,4.04c-0.97-1.22-1.65-2.5-2.02-3.82c-0.37-1.33-0.48-2.65-0.32-3.96
						c0.16-1.31,0.55-2.58,1.18-3.81c0.63-1.23,1.47-2.37,2.51-3.41c1.45-1.45,3.01-2.5,4.69-3.15c1.67-0.65,3.36-0.92,5.06-0.81
						c1.7,0.11,3.37,0.55,5.01,1.34c1.64,0.79,3.17,1.89,4.58,3.31c1.38,1.38,2.46,2.88,3.23,4.5c0.77,1.62,1.2,3.27,1.29,4.95
						c0.09,1.68-0.19,3.35-0.85,5.02c-0.65,1.66-1.71,3.22-3.16,4.67c-1.17,1.17-2.42,2.06-3.74,2.68
						c-1.33,0.62-2.69,0.96-4.09,1.01c-1.4,0.05-2.8-0.18-4.2-0.69c-1.4-0.51-2.74-1.31-4.04-2.39l4.04-4.04
						c1.43,1.11,2.9,1.7,4.39,1.77c1.5,0.06,2.88-0.54,4.16-1.82c0.94-0.94,1.55-1.92,1.84-2.94c0.29-1.02,0.34-2.03,0.15-3.04
						c-0.19-1.01-0.58-1.98-1.14-2.92c-0.57-0.94-1.25-1.81-2.04-2.6c-0.83-0.83-1.73-1.54-2.7-2.14c-0.96-0.59-1.96-0.99-2.97-1.2
						c-1.02-0.2-2.04-0.16-3.06,0.13c-1.02,0.29-2,0.91-2.93,1.85c-0.51,0.51-0.92,1.09-1.22,1.73c-0.3,0.64-0.49,1.29-0.56,1.97
						c-0.07,0.67-0.03,1.33,0.12,1.98C82.67,106.02,82.95,106.62,83.36,107.17z"/>
				</g>
			</g>
			<g>
				<g>
					<path class="st1" d="M82.52,72.63c-0.15,0.65-0.19,1.31-0.12,1.98c0.07,0.67,0.26,1.33,0.56,1.97c0.3,0.64,0.71,1.21,1.22,1.73
						c0.94,0.94,1.92,1.55,2.94,1.85c1.02,0.29,2.04,0.34,3.05,0.13c1.02-0.2,2.01-0.6,2.97-1.19c0.97-0.59,1.86-1.31,2.7-2.14
						c0.8-0.8,1.48-1.67,2.05-2.6c0.57-0.94,0.95-1.91,1.14-2.92c0.19-1.01,0.15-2.02-0.15-3.04c-0.29-1.02-0.91-2-1.85-2.94
						c-1.27-1.27-2.66-1.88-4.16-1.82c-1.5,0.06-2.96,0.65-4.4,1.77l-4.04-4.04c1.29-1.08,2.64-1.88,4.04-2.39
						c1.4-0.51,2.8-0.74,4.2-0.69c1.4,0.05,2.76,0.39,4.09,1.01c1.33,0.62,2.58,1.51,3.74,2.68c1.45,1.45,2.51,3.01,3.16,4.68
						c0.66,1.66,0.94,3.34,0.85,5.02c-0.09,1.68-0.52,3.33-1.29,4.95c-0.77,1.62-1.85,3.12-3.23,4.5c-1.42,1.42-2.94,2.52-4.58,3.31
						c-1.64,0.79-3.31,1.24-5.01,1.34c-1.7,0.11-3.39-0.16-5.06-0.81c-1.67-0.64-3.24-1.69-4.69-3.15
						c-1.04-1.04-1.88-2.18-2.51-3.41c-0.63-1.23-1.02-2.5-1.18-3.81c-0.16-1.31-0.05-2.63,0.32-3.96c0.37-1.33,1.05-2.6,2.02-3.82
						l4.04,4.04C82.95,71.38,82.67,71.98,82.52,72.63z"/>
				</g>
				<g>
					<path class="st1" d="M125.87,113.35l4.04,4.04c-1.22,0.97-2.5,1.65-3.82,2.02c-1.33,0.37-2.65,0.48-3.96,0.32
						c-1.31-0.16-2.58-0.55-3.81-1.18c-1.23-0.63-2.37-1.46-3.41-2.51c-1.45-1.45-2.5-3.01-3.15-4.69
						c-0.65-1.67-0.92-3.36-0.81-5.06c0.11-1.7,0.55-3.37,1.34-5.01c0.79-1.64,1.89-3.16,3.31-4.58c1.38-1.38,2.88-2.46,4.5-3.23
						c1.62-0.77,3.27-1.2,4.95-1.29c1.68-0.09,3.36,0.19,5.02,0.85c1.66,0.65,3.22,1.71,4.67,3.16c1.17,1.17,2.06,2.42,2.68,3.75
						c0.62,1.33,0.96,2.69,1.01,4.09c0.05,1.4-0.18,2.8-0.69,4.2c-0.51,1.4-1.31,2.74-2.39,4.04l-4.04-4.04
						c1.11-1.43,1.7-2.9,1.77-4.4c0.06-1.5-0.54-2.88-1.82-4.16c-0.94-0.94-1.92-1.55-2.93-1.85c-1.02-0.29-2.03-0.34-3.04-0.15
						c-1.01,0.19-1.98,0.58-2.92,1.14c-0.94,0.57-1.81,1.25-2.6,2.05c-0.83,0.83-1.54,1.73-2.14,2.7c-0.59,0.97-0.99,1.96-1.19,2.97
						c-0.2,1.02-0.16,2.04,0.13,3.05c0.29,1.02,0.91,2,1.85,2.94c0.51,0.51,1.09,0.92,1.73,1.22c0.64,0.3,1.29,0.49,1.97,0.56
						c0.67,0.07,1.33,0.03,1.98-0.12C124.73,114.04,125.32,113.76,125.87,113.35z"/>
				</g>
			</g>
		</g>
	</g>
</g>
</svg>
